<?xml version="1.0" encoding="utf-8"?>
<!-- Generator: Adobe Illustrator 25.2.2, SVG Export Plug-In . SVG Version: 6.00 Build 0)  -->
<svg version="1.1" id="Capa_1" xmlns="http://www.w3.org/2000/svg" xmlns:xlink="http://www.w3.org/1999/xlink" x="0px" y="0px"
	 viewBox="0 0 512 512" style="enable-background:new 0 0 512 512;" xml:space="preserve">
<style type="text/css">
	.st0{fill:#FFFFFF;}
</style>
<g>
	<g>
		<path class="st0" d="M424.5,81.8c-5.5,0-10,4.5-10,10s4.5,10,10,10s10-4.5,10-10C434.5,86.3,430,81.8,424.5,81.8z"/>
	</g>
</g>
<g>
	<g>
		<path class="st0" d="M476.5,71.8c-23.9-26.8-57-41.6-93.2-41.6c-39.6,0-75.8,15.4-104.6,44.4c-10,10.1-17.5,20.2-22.7,28.2
			c-5.2-8-12.7-18.1-22.7-28.2c-28.8-29.1-64.9-44.4-104.6-44.4C52.9,30.2,0,93.6,0,169.1C0,271,108,356.8,249.5,479.4
			c1.9,1.6,4.2,2.4,6.5,2.4s4.7-0.8,6.5-2.4C404.3,356.5,512,270.9,512,169.1C512,132.1,499.4,97.5,476.5,71.8z M256,458.6
			C122.4,343,20,260,20,169.1c0-67.8,46.8-118.9,108.8-118.9c34.4,0,64.7,12.8,89.9,38c19.2,19.2,28.2,38.8,28.3,39
			c1.6,3.6,5.2,5.9,9.1,5.9c0,0,0,0,0,0c3.9,0,7.5-2.3,9.1-5.9c0.1-0.2,9-19.8,28.3-39c25.2-25.2,55.4-38,89.9-38
			c62,0,108.8,51.1,108.8,118.9C492,262.1,382.8,348.9,256,458.6z"/>
	</g>
</g>
<g>
	<g>
		<path class="st0" d="M459.5,117.5c-2.6-4.9-8.6-6.8-13.5-4.2c-4.9,2.6-6.8,8.6-4.2,13.5c6.6,12.6,10.2,27.6,10.2,42.3
			c0,28.9-13.8,59.6-43.3,96.5c-3.4,4.3-2.7,10.6,1.6,14.1c4.3,3.5,10.6,2.7,14.1-1.6c32.5-40.7,47.7-75.3,47.7-109
			C472,150.9,467.7,133.1,459.5,117.5z"/>
	</g>
</g>
<g>
	<g>
		<path class="st0" d="M352,221.8h-56v-56c0-5.5-4.5-10-10-10h-60c-5.5,0-10,4.5-10,10v56h-56c-5.5,0-10,4.5-10,10v60
			c0,5.5,4.5,10,10,10h56v56c0,5.5,4.5,10,10,10h60c5.5,0,10-4.5,10-10v-56h56c5.5,0,10-4.5,10-10v-60
			C362,226.3,357.5,221.8,352,221.8z M342,281.8h-56c-5.5,0-10,4.5-10,10v56h-40v-56c0-5.5-4.5-10-10-10h-56v-40h56
			c5.5,0,10-4.5,10-10v-56h40v56c0,5.5,4.5,10,10,10h56V281.8z"/>
	</g>
</g>
</svg>
